<?xml version="1.0" encoding="UTF-8"?>
<svg xmlns="http://www.w3.org/2000/svg" viewBox="0 0 64 64">
  <defs>
    <style>
      .logo-bg { fill: #fff200; }
      .logo-text { fill: #91278f; }
      .accent { fill: #f9ec1e; }
    </style>
  </defs>
  
  <!-- Background circle -->
  <circle cx="32" cy="32" r="30" class="logo-bg"/>
  <circle cx="32" cy="32" r="25" class="logo-text"/>
  
  <!-- Letter R -->
  <path class="logo-bg" d="M18 18h12c3 0 6 1 7 3 1 2 1 5 1 9s0 6-1 8c-1 2-3 3-6 3h-2l6 6c1 1 1 2 0 3-1 1-2 1-3 0l-8-8c-1-1-1-2 0-2h3c2 0 4 0 4-2s-1-2-3-2h-8c-1 0-2 0-2-1s0-1 1-1"/>
  
  <!-- Letter A -->
  <path class="logo-bg" d="M32 18h2c2 0 3 0 4 1 1 1 1 2 1 4s0 4-1 5c-1 1-2 1-3 1 1 0 1 1 1 2 0 1 0 2 0 3v3h-2v-4c0-1 0-1 0-2-1 0-1 0-1 0v6h-2V18"/>
  
  <!-- Letter Y -->
  <path class="logo-bg" d="M42 18l-2 11v4h-2v-4l-2-11h2c1 3 1 5 1 6 0-1 1-3 1-6h2"/>
  
  <!-- Letter H -->
  <path class="logo-bg" d="M48 18v14h-2v-6h-1v6h-2V18h2v6h1v-6h2"/>
  
  <!-- Letter A -->
  <path class="logo-bg" d="M54 18l1 14h-2l0-2h-1l0 2h-2l1-14h2"/>
  
  <!-- Small accent elements -->
  <circle cx="58" cy="8" r="2" class="accent"/>
  <circle cx="58" cy="56" r="2" class="accent"/>
</svg>